<?xml version="1.0" encoding="UTF-8"?>
<svg xmlns="http://www.w3.org/2000/svg" version="1.1" viewBox="0 0 790.4 386.1">
  <defs>
    <style>
      .cls-1 {
        fill: #84ceeb;
      }

      .cls-1, .cls-2, .cls-3 {
        stroke: #000;
        stroke-miterlimit: 10;
        stroke-width: .5px;
      }

      .cls-4 {
        fill: #fff;
      }

      .cls-2 {
        fill: #c1c8e4;
      }

      .cls-5 {
        isolation: isolate;
      }

      .cls-3 {
        fill: #8860d0;
      }
    </style>
  </defs>
  <!-- Generator: Adobe Illustrator 28.6.0, SVG Export Plug-In . SVG Version: 1.2.0 Build 709)  -->
  <g>
    <g id="Layer_1">
      <g id="Layer_1-2" data-name="Layer_1">
        <path class="cls-3" d="M355.6,251.1l-121-11.1c-.9,0-1.7.4-2.1,1.3l-47.9,111.6c-.8,1.9-3.5,1.6-3.9-.4l-26.9-118.5c-.2-.9-.9-1.5-1.8-1.6l-121-11.1c-2-.2-2.6-2.8-.9-3.9l104.4-62.1c.8-.5,1.2-1.4,1-2.3l-26.9-118.5c-.4-2,1.9-3.4,3.4-2l91.4,80.1c.7.6,1.7.7,2.4.2l104.4-62.1c1.7-1,3.8.8,3,2.6l-47.9,111.6c-.4.8-.1,1.8.5,2.4l91.4,80.1c1.5,1.3.4,3.8-1.6,3.6h0Z"/>
        <path class="cls-2" d="M366.2,190.2l-108.1,37.1c-5.5,1.9-9.1,7.2-8.9,13l4,106.4c0,1.8-2.2,2.7-3.4,1.3l-70.6-83.5c-4-4.7-10.5-6.5-16.3-4.5l-108,37c-1.8.6-3.3-1.4-2.2-3l63.9-88.2c3.5-4.9,3.3-11.5-.6-16L45.6,106.5c-1.2-1.4.1-3.6,2-3.1l109.5,28.6c6.5,1.7,13.4-.8,17.4-6.2l63.6-87.8c1.1-1.5,3.4-.8,3.5,1.1l4.1,108c.2,4.9,3.5,9.1,8.3,10.3l112.1,29.2c1.8.5,1.9,3.1.1,3.7h0Z"/>
        <path class="cls-1" d="M302.9,240.7l-62.2-8.8c-10.9-1.5-21.6,4.1-26.5,14l-27.6,56.4c-.4.7-1.4.6-1.6-.2l-11.2-63.7c-1.7-9.8-9.5-17.4-19.4-18.8l-64-9.1c-.8-.1-1-1.2-.3-1.6l56.1-29.7c9.4-5,14.5-15.5,12.7-26l-10.9-62.5c0-.8.8-1.3,1.4-.7l46.3,44.8c7.2,7,18.1,8.5,27,3.8l56.9-30.2c.7-.4,1.5.4,1.1,1.1l-30.4,62.1c-3.2,6.5-1.8,14.3,3.4,19.3l49.7,48.1c.6.6.1,1.5-.7,1.4h0l.2.3Z"/>
        <g class="cls-5">
          <g>
            <path class="cls-4" d="M263.1,261.9h14l6.5,70.9h.3l6.9-70.9h15.8l6.9,70.9h.3l6.5-70.9h12.5l-9.4,92.3h-18.1l-6.6-62.2h-.3l-6.6,62.2h-19.2l-9.4-92.3Z"/>
            <path class="cls-4" d="M339.9,261.9h39.5v13.2h-25v24.4h19.9v13.2h-19.9v28.3h25v13.2h-39.5v-92.3Z"/>
            <path class="cls-4" d="M387.8,261.9h21.9c15,0,21.5,7,21.5,21.2v3.7c0,9.5-2.9,15.4-9.4,18.1v.3c7.8,2.6,10.8,9.5,10.8,19.2v7.9c0,14.2-7.5,21.9-22,21.9h-22.8v-92.3ZM407.9,299.5c5.4,0,8.7-2.4,8.7-9.8v-5.1c0-6.6-2.2-9.5-7.4-9.5h-7v24.4h5.7ZM410.6,341c4.9,0,7.5-2.2,7.5-9.1v-8c0-8.6-2.8-11.2-9.4-11.2h-6.5v28.3h8.3Z"/>
            <path class="cls-4" d="M441,261.9h20.7l9.2,66h.3l9.2-66h20.7v92.3h-13.7v-69.9h-.3l-10.5,69.9h-12.1l-10.5-69.9h-.3v69.9h-12.7v-92.3Z"/>
            <path class="cls-4" d="M523.1,261.9h19.6l15,92.3h-14.5l-2.6-18.3v.3h-16.5l-2.6,18.1h-13.4l15-92.3ZM538.9,323.6l-6.5-45.6h-.3l-6.3,45.6h13Z"/>
            <path class="cls-4" d="M564.8,261.9h21.5c15,0,21.5,7,21.5,21.2v5.7c0,9.5-3,15.6-9.5,18.2v.3c7.2,2.2,9.6,9.1,9.6,19.5v16.2c0,4.5.1,7.8,1.6,11.2h-14.8c-.8-2.4-1.3-3.8-1.3-11.3v-16.9c0-8.6-2.5-11.3-9.1-11.3h-5v39.5h-14.5v-92.3ZM584.5,301.5c5.4,0,8.7-2.4,8.7-9.8v-7.1c0-6.6-2.2-9.5-7.4-9.5h-6.6v26.4h5.3Z"/>
            <path class="cls-4" d="M617.9,261.9h14.5v38.9l18.5-38.9h14.5l-17.3,33.9,17.5,58.4h-15.2l-12.3-41.1-5.8,11.7v29.4h-14.5v-92.3Z"/>
            <path class="cls-4" d="M672.4,261.9h39.5v13.2h-25v24.4h19.9v13.2h-19.9v28.3h25v13.2h-39.5v-92.3Z"/>
            <path class="cls-4" d="M731.6,275.1h-15.2v-13.2h44.8v13.2h-15.2v79.1h-14.5v-79.1Z"/>
          </g>
        </g>
      </g>
    </g>
  </g>
</svg>